<svg xmlns="http://www.w3.org/2000/svg" width="77" height="84" viewBox="0 0 77 84">
    <defs>
        <filter id="a" width="109.2%" height="110.1%" x="-4.6%" y="-5%" filterUnits="objectBoundingBox">
            <feOffset in="SourceAlpha" result="shadowOffsetOuter1"/>
            <feGaussianBlur in="shadowOffsetOuter1" result="shadowBlurOuter1" stdDeviation="15"/>
            <feColorMatrix in="shadowBlurOuter1" result="shadowMatrixOuter1" values="0 0 0 0 0 0 0 0 0 0 0 0 0 0 0 0 0 0 0.133038949 0"/>
            <feMerge>
                <feMergeNode in="shadowMatrixOuter1"/>
                <feMergeNode in="SourceGraphic"/>
            </feMerge>
        </filter>
    </defs>
    <path fill="#B1BFCD" fill-rule="evenodd" d="M324.712 100.823c-.001-4.504-3.671-8.206-8.137-8.208-4.579-.001-8.258 3.652-8.258 8.2 0 4.537 3.668 8.22 8.194 8.224 4.519.005 8.202-3.685 8.201-8.216m-7.03 16.234c0 .574.004 1.122-.002 1.67-.005.582-.353 1.041-.875 1.17-.76.185-1.441-.351-1.456-1.154-.008-.473-.001-.946-.001-1.42v-.266h-1.509c-.706 0-1.22-.47-1.238-1.132-.018-.672.484-1.183 1.197-1.202.434-.011.869-.002 1.304-.003h.246v-.454c0-.893-.008-1.787.005-2.68.003-.224-.062-.283-.285-.318-3.485-.55-6.128-2.356-7.82-5.451-2.178-3.986-1.53-8.847 1.558-12.168 1.732-1.862 3.872-2.961 6.39-3.29 5.409-.706 10.491 2.925 11.622 8.286a10.533 10.533 0 0 1-4.887 11.22 10.462 10.462 0 0 1-4.067 1.418c-.112.015-.184.036-.184.173.004 1.076.002 2.152.002 3.264h.253c.465.003.93-.012 1.395.012.606.03 1.051.486 1.097 1.086a1.154 1.154 0 0 1-.926 1.215c-.139.03-.287.022-.432.023-.455.002-.91 0-1.387 0" filter="url(#a)" transform="translate(-278 -62)"/>
</svg>
