<svg xmlns="http://www.w3.org/2000/svg" width="122" height="122" viewBox="0 0 122 122">
    <defs>
        <filter id="a" width="109.2%" height="110.1%" x="-4.6%" y="-5%" filterUnits="objectBoundingBox">
            <feOffset in="SourceAlpha" result="shadowOffsetOuter1"/>
            <feGaussianBlur in="shadowOffsetOuter1" result="shadowBlurOuter1" stdDeviation="15"/>
            <feColorMatrix in="shadowBlurOuter1" result="shadowMatrixOuter1" values="0 0 0 0 0 0 0 0 0 0 0 0 0 0 0 0 0 0 0.133038949 0"/>
            <feMerge>
                <feMergeNode in="shadowMatrixOuter1"/>
                <feMergeNode in="SourceGraphic"/>
            </feMerge>
        </filter>
    </defs>
    <g fill="none" fill-rule="evenodd" filter="url(#a)" transform="translate(29 29)">
        <ellipse cx="31.875" cy="31.857" fill="#383838" rx="31.875" ry="31.857"/>
        <path fill="#FFD300" d="M40.969 32.502c0-.519-.195-1.038-.585-1.433l-12.256-12.45a1.974 1.974 0 0 0-2.823 0 2.05 2.05 0 0 0 0 2.867L36.15 32.502 25.306 43.518a2.05 2.05 0 0 0 0 2.867c.78.793 2.043.793 2.823 0l12.256-12.45a2.04 2.04 0 0 0 .584-1.433"/>
    </g>
</svg>
